<mxfile host="Electron" modified="2024-03-08T14:57:56.066Z" agent="Mozilla/5.0 (Windows NT 10.0; Win64; x64) AppleWebKit/537.36 (KHTML, like Gecko) draw.io/23.1.5 Chrome/120.0.6099.109 Electron/28.1.0 Safari/537.36" etag="xOHCQdd_c-k-UoWLnNDw" version="23.1.5" type="device">
  <diagram name="第 1 页" id="gom_8PZvILBd4elTH_2E">
    <mxGraphModel dx="1125" dy="870" grid="1" gridSize="10" guides="1" tooltips="1" connect="1" arrows="1" fold="1" page="1" pageScale="1" pageWidth="827" pageHeight="1169" math="0" shadow="0">
      <root>
        <mxCell id="0" />
        <mxCell id="1" parent="0" />
        <mxCell id="S-bMGMIUrsp9bvutukjd-1" value="" style="rounded=1;whiteSpace=wrap;html=1;" vertex="1" parent="1">
          <mxGeometry x="20" y="130" width="180" height="170" as="geometry" />
        </mxCell>
        <mxCell id="S-bMGMIUrsp9bvutukjd-3" value="" style="line;strokeWidth=2;html=1;" vertex="1" parent="1">
          <mxGeometry x="60" y="160" width="130" height="10" as="geometry" />
        </mxCell>
        <mxCell id="S-bMGMIUrsp9bvutukjd-5" value="" style="line;strokeWidth=2;html=1;" vertex="1" parent="1">
          <mxGeometry x="30" y="190" width="160" height="10" as="geometry" />
        </mxCell>
        <mxCell id="S-bMGMIUrsp9bvutukjd-6" value="" style="line;strokeWidth=2;html=1;" vertex="1" parent="1">
          <mxGeometry x="30" y="220" width="160" height="10" as="geometry" />
        </mxCell>
        <mxCell id="S-bMGMIUrsp9bvutukjd-7" value="" style="line;strokeWidth=2;html=1;" vertex="1" parent="1">
          <mxGeometry x="30" y="250" width="160" height="10" as="geometry" />
        </mxCell>
        <mxCell id="S-bMGMIUrsp9bvutukjd-8" value="" style="shape=flexArrow;endArrow=classic;html=1;rounded=0;exitX=1;exitY=0.5;exitDx=0;exitDy=0;entryX=0;entryY=0.5;entryDx=0;entryDy=0;" edge="1" parent="1" source="S-bMGMIUrsp9bvutukjd-1" target="S-bMGMIUrsp9bvutukjd-11">
          <mxGeometry width="50" height="50" relative="1" as="geometry">
            <mxPoint x="390" y="470" as="sourcePoint" />
            <mxPoint x="320" y="215" as="targetPoint" />
          </mxGeometry>
        </mxCell>
        <mxCell id="S-bMGMIUrsp9bvutukjd-9" value="&lt;span style=&quot;font-size: 16px;&quot;&gt;&lt;b&gt;文本分割器&lt;/b&gt;&lt;/span&gt;" style="text;html=1;align=center;verticalAlign=middle;whiteSpace=wrap;rounded=0;" vertex="1" parent="1">
          <mxGeometry x="200" y="180" width="110" height="30" as="geometry" />
        </mxCell>
        <mxCell id="S-bMGMIUrsp9bvutukjd-11" value="" style="rounded=1;whiteSpace=wrap;html=1;" vertex="1" parent="1">
          <mxGeometry x="324" y="130" width="180" height="170" as="geometry" />
        </mxCell>
        <mxCell id="S-bMGMIUrsp9bvutukjd-12" value="" style="line;strokeWidth=2;html=1;" vertex="1" parent="1">
          <mxGeometry x="360" y="160" width="70" height="10" as="geometry" />
        </mxCell>
        <mxCell id="S-bMGMIUrsp9bvutukjd-13" value="" style="line;strokeWidth=2;html=1;" vertex="1" parent="1">
          <mxGeometry x="440" y="160" width="50" height="10" as="geometry" />
        </mxCell>
        <mxCell id="S-bMGMIUrsp9bvutukjd-14" value="" style="line;strokeWidth=2;html=1;" vertex="1" parent="1">
          <mxGeometry x="334" y="190" width="76" height="10" as="geometry" />
        </mxCell>
        <mxCell id="S-bMGMIUrsp9bvutukjd-15" value="" style="line;strokeWidth=2;html=1;" vertex="1" parent="1">
          <mxGeometry x="420" y="190" width="70" height="10" as="geometry" />
        </mxCell>
        <mxCell id="S-bMGMIUrsp9bvutukjd-16" value="" style="line;strokeWidth=2;html=1;" vertex="1" parent="1">
          <mxGeometry x="334" y="220" width="26" height="10" as="geometry" />
        </mxCell>
        <mxCell id="S-bMGMIUrsp9bvutukjd-17" value="" style="line;strokeWidth=2;html=1;" vertex="1" parent="1">
          <mxGeometry x="370" y="220" width="120" height="10" as="geometry" />
        </mxCell>
        <mxCell id="S-bMGMIUrsp9bvutukjd-20" value="" style="line;strokeWidth=2;html=1;" vertex="1" parent="1">
          <mxGeometry x="330" y="250" width="110" height="10" as="geometry" />
        </mxCell>
        <mxCell id="S-bMGMIUrsp9bvutukjd-21" value="" style="line;strokeWidth=2;html=1;" vertex="1" parent="1">
          <mxGeometry x="450" y="250" width="40" height="10" as="geometry" />
        </mxCell>
        <mxCell id="S-bMGMIUrsp9bvutukjd-24" value="&lt;b style=&quot;border-color: var(--border-color); color: rgb(0, 0, 0); font-family: Helvetica; font-style: normal; font-variant-ligatures: normal; font-variant-caps: normal; letter-spacing: normal; orphans: 2; text-align: center; text-indent: 0px; text-transform: none; widows: 2; word-spacing: 0px; -webkit-text-stroke-width: 0px; background-color: rgb(251, 251, 251); text-decoration-thickness: initial; text-decoration-style: initial; text-decoration-color: initial; font-size: 20px;&quot;&gt;/&lt;/b&gt;" style="text;whiteSpace=wrap;html=1;" vertex="1" parent="1">
          <mxGeometry x="410" y="170" width="40" height="50" as="geometry" />
        </mxCell>
        <mxCell id="S-bMGMIUrsp9bvutukjd-26" value="&lt;b style=&quot;border-color: var(--border-color); color: rgb(0, 0, 0); font-family: Helvetica; font-style: normal; font-variant-ligatures: normal; font-variant-caps: normal; letter-spacing: normal; orphans: 2; text-align: center; text-indent: 0px; text-transform: none; widows: 2; word-spacing: 0px; -webkit-text-stroke-width: 0px; background-color: rgb(251, 251, 251); text-decoration-thickness: initial; text-decoration-style: initial; text-decoration-color: initial; font-size: 20px;&quot;&gt;/&lt;/b&gt;" style="text;whiteSpace=wrap;html=1;" vertex="1" parent="1">
          <mxGeometry x="360" y="200" width="40" height="50" as="geometry" />
        </mxCell>
        <mxCell id="S-bMGMIUrsp9bvutukjd-27" value="&lt;b style=&quot;border-color: var(--border-color); color: rgb(0, 0, 0); font-family: Helvetica; font-style: normal; font-variant-ligatures: normal; font-variant-caps: normal; letter-spacing: normal; orphans: 2; text-align: center; text-indent: 0px; text-transform: none; widows: 2; word-spacing: 0px; -webkit-text-stroke-width: 0px; background-color: rgb(251, 251, 251); text-decoration-thickness: initial; text-decoration-style: initial; text-decoration-color: initial; font-size: 20px;&quot;&gt;/&lt;/b&gt;" style="text;whiteSpace=wrap;html=1;" vertex="1" parent="1">
          <mxGeometry x="430" y="140" width="40" height="50" as="geometry" />
        </mxCell>
        <mxCell id="S-bMGMIUrsp9bvutukjd-28" value="&lt;b style=&quot;border-color: var(--border-color); color: rgb(0, 0, 0); font-family: Helvetica; font-style: normal; font-variant-ligatures: normal; font-variant-caps: normal; letter-spacing: normal; orphans: 2; text-align: center; text-indent: 0px; text-transform: none; widows: 2; word-spacing: 0px; -webkit-text-stroke-width: 0px; background-color: rgb(251, 251, 251); text-decoration-thickness: initial; text-decoration-style: initial; text-decoration-color: initial; font-size: 20px;&quot;&gt;/&lt;/b&gt;" style="text;whiteSpace=wrap;html=1;" vertex="1" parent="1">
          <mxGeometry x="440" y="230" width="40" height="50" as="geometry" />
        </mxCell>
        <mxCell id="S-bMGMIUrsp9bvutukjd-30" value="" style="rounded=1;whiteSpace=wrap;html=1;" vertex="1" parent="1">
          <mxGeometry x="630" y="130" width="180" height="170" as="geometry" />
        </mxCell>
        <mxCell id="S-bMGMIUrsp9bvutukjd-31" value="" style="line;strokeWidth=2;html=1;" vertex="1" parent="1">
          <mxGeometry x="666" y="160" width="70" height="10" as="geometry" />
        </mxCell>
        <mxCell id="S-bMGMIUrsp9bvutukjd-32" value="" style="line;strokeWidth=2;html=1;" vertex="1" parent="1">
          <mxGeometry x="746" y="160" width="50" height="10" as="geometry" />
        </mxCell>
        <mxCell id="S-bMGMIUrsp9bvutukjd-33" value="" style="line;strokeWidth=2;html=1;" vertex="1" parent="1">
          <mxGeometry x="640" y="190" width="76" height="10" as="geometry" />
        </mxCell>
        <mxCell id="S-bMGMIUrsp9bvutukjd-37" value="" style="line;strokeWidth=2;html=1;" vertex="1" parent="1">
          <mxGeometry x="636" y="250" width="110" height="10" as="geometry" />
        </mxCell>
        <mxCell id="S-bMGMIUrsp9bvutukjd-38" value="" style="line;strokeWidth=2;html=1;" vertex="1" parent="1">
          <mxGeometry x="756" y="250" width="40" height="10" as="geometry" />
        </mxCell>
        <mxCell id="S-bMGMIUrsp9bvutukjd-39" value="&lt;b style=&quot;border-color: var(--border-color); color: rgb(0, 0, 0); font-family: Helvetica; font-style: normal; font-variant-ligatures: normal; font-variant-caps: normal; letter-spacing: normal; orphans: 2; text-align: center; text-indent: 0px; text-transform: none; widows: 2; word-spacing: 0px; -webkit-text-stroke-width: 0px; background-color: rgb(251, 251, 251); text-decoration-thickness: initial; text-decoration-style: initial; text-decoration-color: initial; font-size: 20px;&quot;&gt;/&lt;/b&gt;" style="text;whiteSpace=wrap;html=1;" vertex="1" parent="1">
          <mxGeometry x="716" y="170" width="40" height="50" as="geometry" />
        </mxCell>
        <mxCell id="S-bMGMIUrsp9bvutukjd-40" value="&lt;b style=&quot;border-color: var(--border-color); color: rgb(0, 0, 0); font-family: Helvetica; font-style: normal; font-variant-ligatures: normal; font-variant-caps: normal; letter-spacing: normal; orphans: 2; text-align: center; text-indent: 0px; text-transform: none; widows: 2; word-spacing: 0px; -webkit-text-stroke-width: 0px; background-color: rgb(251, 251, 251); text-decoration-thickness: initial; text-decoration-style: initial; text-decoration-color: initial; font-size: 20px;&quot;&gt;/&lt;/b&gt;" style="text;whiteSpace=wrap;html=1;" vertex="1" parent="1">
          <mxGeometry x="666" y="200" width="40" height="50" as="geometry" />
        </mxCell>
        <mxCell id="S-bMGMIUrsp9bvutukjd-41" value="&lt;b style=&quot;border-color: var(--border-color); color: rgb(0, 0, 0); font-family: Helvetica; font-style: normal; font-variant-ligatures: normal; font-variant-caps: normal; letter-spacing: normal; orphans: 2; text-align: center; text-indent: 0px; text-transform: none; widows: 2; word-spacing: 0px; -webkit-text-stroke-width: 0px; background-color: rgb(251, 251, 251); text-decoration-thickness: initial; text-decoration-style: initial; text-decoration-color: initial; font-size: 20px;&quot;&gt;/&lt;/b&gt;" style="text;whiteSpace=wrap;html=1;" vertex="1" parent="1">
          <mxGeometry x="736" y="140" width="40" height="50" as="geometry" />
        </mxCell>
        <mxCell id="S-bMGMIUrsp9bvutukjd-42" value="&lt;b style=&quot;border-color: var(--border-color); color: rgb(0, 0, 0); font-family: Helvetica; font-style: normal; font-variant-ligatures: normal; font-variant-caps: normal; letter-spacing: normal; orphans: 2; text-align: center; text-indent: 0px; text-transform: none; widows: 2; word-spacing: 0px; -webkit-text-stroke-width: 0px; background-color: rgb(251, 251, 251); text-decoration-thickness: initial; text-decoration-style: initial; text-decoration-color: initial; font-size: 20px;&quot;&gt;/&lt;/b&gt;" style="text;whiteSpace=wrap;html=1;" vertex="1" parent="1">
          <mxGeometry x="746" y="230" width="40" height="50" as="geometry" />
        </mxCell>
        <mxCell id="S-bMGMIUrsp9bvutukjd-43" value="" style="shape=flexArrow;endArrow=classic;html=1;rounded=0;exitX=1;exitY=0.5;exitDx=0;exitDy=0;entryX=0;entryY=0.5;entryDx=0;entryDy=0;" edge="1" parent="1" source="S-bMGMIUrsp9bvutukjd-11" target="S-bMGMIUrsp9bvutukjd-30">
          <mxGeometry width="50" height="50" relative="1" as="geometry">
            <mxPoint x="210" y="225" as="sourcePoint" />
            <mxPoint x="334" y="225" as="targetPoint" />
          </mxGeometry>
        </mxCell>
        <mxCell id="S-bMGMIUrsp9bvutukjd-44" value="&lt;span style=&quot;font-size: 16px;&quot;&gt;&lt;b&gt;向量搜索&lt;/b&gt;&lt;/span&gt;" style="text;html=1;align=center;verticalAlign=middle;whiteSpace=wrap;rounded=0;" vertex="1" parent="1">
          <mxGeometry x="504" y="180" width="110" height="30" as="geometry" />
        </mxCell>
        <mxCell id="S-bMGMIUrsp9bvutukjd-45" value="" style="rounded=0;whiteSpace=wrap;html=1;fillColor=#dae8fc;strokeColor=#6c8ebf;" vertex="1" parent="1">
          <mxGeometry x="730" y="180" width="70" height="20" as="geometry" />
        </mxCell>
        <mxCell id="S-bMGMIUrsp9bvutukjd-46" value="" style="rounded=0;whiteSpace=wrap;html=1;fillColor=#dae8fc;strokeColor=#6c8ebf;" vertex="1" parent="1">
          <mxGeometry x="676" y="205" width="124" height="20" as="geometry" />
        </mxCell>
        <mxCell id="S-bMGMIUrsp9bvutukjd-48" value="" style="rounded=1;whiteSpace=wrap;html=1;" vertex="1" parent="1">
          <mxGeometry x="630" y="400" width="180" height="170" as="geometry" />
        </mxCell>
        <mxCell id="S-bMGMIUrsp9bvutukjd-49" value="" style="line;strokeWidth=2;html=1;" vertex="1" parent="1">
          <mxGeometry x="666" y="430" width="70" height="10" as="geometry" />
        </mxCell>
        <mxCell id="S-bMGMIUrsp9bvutukjd-54" value="" style="line;strokeWidth=2;html=1;" vertex="1" parent="1">
          <mxGeometry x="756" y="520" width="40" height="10" as="geometry" />
        </mxCell>
        <mxCell id="S-bMGMIUrsp9bvutukjd-55" value="&lt;b style=&quot;border-color: var(--border-color); color: rgb(0, 0, 0); font-family: Helvetica; font-style: normal; font-variant-ligatures: normal; font-variant-caps: normal; letter-spacing: normal; orphans: 2; text-align: center; text-indent: 0px; text-transform: none; widows: 2; word-spacing: 0px; -webkit-text-stroke-width: 0px; background-color: rgb(251, 251, 251); text-decoration-thickness: initial; text-decoration-style: initial; text-decoration-color: initial; font-size: 20px;&quot;&gt;/&lt;/b&gt;" style="text;whiteSpace=wrap;html=1;" vertex="1" parent="1">
          <mxGeometry x="716" y="440" width="40" height="50" as="geometry" />
        </mxCell>
        <mxCell id="S-bMGMIUrsp9bvutukjd-56" value="&lt;b style=&quot;border-color: var(--border-color); color: rgb(0, 0, 0); font-family: Helvetica; font-style: normal; font-variant-ligatures: normal; font-variant-caps: normal; letter-spacing: normal; orphans: 2; text-align: center; text-indent: 0px; text-transform: none; widows: 2; word-spacing: 0px; -webkit-text-stroke-width: 0px; background-color: rgb(251, 251, 251); text-decoration-thickness: initial; text-decoration-style: initial; text-decoration-color: initial; font-size: 20px;&quot;&gt;/&lt;/b&gt;" style="text;whiteSpace=wrap;html=1;" vertex="1" parent="1">
          <mxGeometry x="666" y="470" width="40" height="50" as="geometry" />
        </mxCell>
        <mxCell id="S-bMGMIUrsp9bvutukjd-57" value="&lt;b style=&quot;border-color: var(--border-color); color: rgb(0, 0, 0); font-family: Helvetica; font-style: normal; font-variant-ligatures: normal; font-variant-caps: normal; letter-spacing: normal; orphans: 2; text-align: center; text-indent: 0px; text-transform: none; widows: 2; word-spacing: 0px; -webkit-text-stroke-width: 0px; background-color: rgb(251, 251, 251); text-decoration-thickness: initial; text-decoration-style: initial; text-decoration-color: initial; font-size: 20px;&quot;&gt;/&lt;/b&gt;" style="text;whiteSpace=wrap;html=1;" vertex="1" parent="1">
          <mxGeometry x="736" y="410" width="40" height="50" as="geometry" />
        </mxCell>
        <mxCell id="S-bMGMIUrsp9bvutukjd-58" value="&lt;b style=&quot;border-color: var(--border-color); color: rgb(0, 0, 0); font-family: Helvetica; font-style: normal; font-variant-ligatures: normal; font-variant-caps: normal; letter-spacing: normal; orphans: 2; text-align: center; text-indent: 0px; text-transform: none; widows: 2; word-spacing: 0px; -webkit-text-stroke-width: 0px; background-color: rgb(251, 251, 251); text-decoration-thickness: initial; text-decoration-style: initial; text-decoration-color: initial; font-size: 20px;&quot;&gt;/&lt;/b&gt;" style="text;whiteSpace=wrap;html=1;" vertex="1" parent="1">
          <mxGeometry x="746" y="500" width="40" height="50" as="geometry" />
        </mxCell>
        <mxCell id="S-bMGMIUrsp9bvutukjd-59" value="" style="rounded=0;whiteSpace=wrap;html=1;fillColor=#dae8fc;strokeColor=#6c8ebf;" vertex="1" parent="1">
          <mxGeometry x="730" y="450" width="70" height="20" as="geometry" />
        </mxCell>
        <mxCell id="S-bMGMIUrsp9bvutukjd-60" value="" style="rounded=0;whiteSpace=wrap;html=1;fillColor=#dae8fc;strokeColor=#6c8ebf;" vertex="1" parent="1">
          <mxGeometry x="676" y="475" width="124" height="20" as="geometry" />
        </mxCell>
        <mxCell id="S-bMGMIUrsp9bvutukjd-61" value="" style="shape=flexArrow;endArrow=classic;html=1;rounded=0;exitX=0.5;exitY=1;exitDx=0;exitDy=0;entryX=0.5;entryY=0;entryDx=0;entryDy=0;" edge="1" parent="1" source="S-bMGMIUrsp9bvutukjd-30" target="S-bMGMIUrsp9bvutukjd-48">
          <mxGeometry width="50" height="50" relative="1" as="geometry">
            <mxPoint x="514" y="225" as="sourcePoint" />
            <mxPoint x="640" y="225" as="targetPoint" />
          </mxGeometry>
        </mxCell>
        <mxCell id="S-bMGMIUrsp9bvutukjd-62" value="&lt;span style=&quot;font-size: 16px;&quot;&gt;&lt;b&gt;添加上下文&lt;/b&gt;&lt;/span&gt;" style="text;html=1;align=center;verticalAlign=middle;whiteSpace=wrap;rounded=0;" vertex="1" parent="1">
          <mxGeometry x="714" y="330" width="114" height="40" as="geometry" />
        </mxCell>
        <mxCell id="S-bMGMIUrsp9bvutukjd-63" value="" style="rounded=0;whiteSpace=wrap;html=1;fillColor=#ffe6cc;strokeColor=#d79b00;" vertex="1" parent="1">
          <mxGeometry x="746" y="420" width="54" height="20" as="geometry" />
        </mxCell>
        <mxCell id="S-bMGMIUrsp9bvutukjd-64" value="" style="rounded=0;whiteSpace=wrap;html=1;fillColor=#ffe6cc;strokeColor=#d79b00;" vertex="1" parent="1">
          <mxGeometry x="640" y="450" width="70" height="20" as="geometry" />
        </mxCell>
        <mxCell id="S-bMGMIUrsp9bvutukjd-65" value="" style="rounded=0;whiteSpace=wrap;html=1;fillColor=#ffe6cc;strokeColor=#d79b00;" vertex="1" parent="1">
          <mxGeometry x="640" y="510" width="100" height="20" as="geometry" />
        </mxCell>
        <mxCell id="S-bMGMIUrsp9bvutukjd-66" value="" style="rounded=0;whiteSpace=wrap;html=1;fillColor=#dae8fc;strokeColor=#6c8ebf;" vertex="1" parent="1">
          <mxGeometry x="640" y="475" width="26" height="20" as="geometry" />
        </mxCell>
        <mxCell id="S-bMGMIUrsp9bvutukjd-67" value="" style="rounded=0;whiteSpace=wrap;html=1;fillColor=#dae8fc;strokeColor=#6c8ebf;" vertex="1" parent="1">
          <mxGeometry x="640" y="205" width="26" height="20" as="geometry" />
        </mxCell>
        <mxCell id="S-bMGMIUrsp9bvutukjd-69" value="" style="rounded=1;whiteSpace=wrap;html=1;" vertex="1" parent="1">
          <mxGeometry x="324" y="400" width="180" height="170" as="geometry" />
        </mxCell>
        <mxCell id="S-bMGMIUrsp9bvutukjd-70" value="" style="rounded=0;whiteSpace=wrap;html=1;fillColor=#ffe6cc;strokeColor=#d79b00;" vertex="1" parent="1">
          <mxGeometry x="334" y="430" width="156" height="20" as="geometry" />
        </mxCell>
        <mxCell id="S-bMGMIUrsp9bvutukjd-71" value="" style="rounded=0;whiteSpace=wrap;html=1;fillColor=#dae8fc;strokeColor=#6c8ebf;" vertex="1" parent="1">
          <mxGeometry x="334" y="460" width="156" height="20" as="geometry" />
        </mxCell>
        <mxCell id="S-bMGMIUrsp9bvutukjd-72" value="" style="rounded=0;whiteSpace=wrap;html=1;fillColor=#ffe6cc;strokeColor=#d79b00;" vertex="1" parent="1">
          <mxGeometry x="334" y="495" width="156" height="20" as="geometry" />
        </mxCell>
        <mxCell id="S-bMGMIUrsp9bvutukjd-73" value="" style="rounded=0;whiteSpace=wrap;html=1;fillColor=#ffe6cc;strokeColor=#d79b00;" vertex="1" parent="1">
          <mxGeometry x="335" y="540" width="155" height="20" as="geometry" />
        </mxCell>
        <mxCell id="S-bMGMIUrsp9bvutukjd-74" value="&lt;span style=&quot;font-size: 16px;&quot;&gt;&lt;b&gt;知识&lt;/b&gt;&lt;/span&gt;" style="text;html=1;align=center;verticalAlign=middle;whiteSpace=wrap;rounded=0;" vertex="1" parent="1">
          <mxGeometry x="300" y="400" width="110" height="30" as="geometry" />
        </mxCell>
        <mxCell id="S-bMGMIUrsp9bvutukjd-75" value="&lt;span style=&quot;font-size: 16px;&quot;&gt;&lt;b&gt;问题&lt;/b&gt;&lt;/span&gt;" style="text;html=1;align=center;verticalAlign=middle;whiteSpace=wrap;rounded=0;" vertex="1" parent="1">
          <mxGeometry x="300" y="510" width="110" height="30" as="geometry" />
        </mxCell>
        <mxCell id="S-bMGMIUrsp9bvutukjd-76" value="" style="shape=flexArrow;endArrow=classic;html=1;rounded=0;exitX=0;exitY=0.5;exitDx=0;exitDy=0;entryX=1;entryY=0.5;entryDx=0;entryDy=0;" edge="1" parent="1" source="S-bMGMIUrsp9bvutukjd-48" target="S-bMGMIUrsp9bvutukjd-69">
          <mxGeometry width="50" height="50" relative="1" as="geometry">
            <mxPoint x="514" y="225" as="sourcePoint" />
            <mxPoint x="640" y="225" as="targetPoint" />
          </mxGeometry>
        </mxCell>
        <mxCell id="S-bMGMIUrsp9bvutukjd-77" value="&lt;span style=&quot;font-size: 16px;&quot;&gt;&lt;b&gt;生成提示&lt;/b&gt;&lt;/span&gt;" style="text;html=1;align=center;verticalAlign=middle;whiteSpace=wrap;rounded=0;" vertex="1" parent="1">
          <mxGeometry x="514" y="450" width="110" height="30" as="geometry" />
        </mxCell>
        <mxCell id="S-bMGMIUrsp9bvutukjd-78" value="" style="rounded=1;whiteSpace=wrap;html=1;" vertex="1" parent="1">
          <mxGeometry x="20" y="400" width="180" height="170" as="geometry" />
        </mxCell>
        <mxCell id="S-bMGMIUrsp9bvutukjd-79" value="" style="line;strokeWidth=2;html=1;" vertex="1" parent="1">
          <mxGeometry x="25" y="430" width="165" height="10" as="geometry" />
        </mxCell>
        <mxCell id="S-bMGMIUrsp9bvutukjd-80" value="" style="line;strokeWidth=2;html=1;" vertex="1" parent="1">
          <mxGeometry x="30" y="460" width="160" height="10" as="geometry" />
        </mxCell>
        <mxCell id="S-bMGMIUrsp9bvutukjd-81" value="" style="line;strokeWidth=2;html=1;" vertex="1" parent="1">
          <mxGeometry x="30" y="490" width="160" height="10" as="geometry" />
        </mxCell>
        <mxCell id="S-bMGMIUrsp9bvutukjd-82" value="" style="line;strokeWidth=2;html=1;" vertex="1" parent="1">
          <mxGeometry x="30" y="520" width="160" height="10" as="geometry" />
        </mxCell>
        <mxCell id="S-bMGMIUrsp9bvutukjd-83" value="&lt;span style=&quot;font-size: 16px;&quot;&gt;&lt;b&gt;回答&lt;/b&gt;&lt;/span&gt;" style="text;html=1;align=center;verticalAlign=middle;whiteSpace=wrap;rounded=0;" vertex="1" parent="1">
          <mxGeometry y="400" width="110" height="30" as="geometry" />
        </mxCell>
        <mxCell id="S-bMGMIUrsp9bvutukjd-84" value="" style="shape=flexArrow;endArrow=classic;html=1;rounded=0;exitX=0;exitY=0.5;exitDx=0;exitDy=0;entryX=1;entryY=0.5;entryDx=0;entryDy=0;" edge="1" parent="1" source="S-bMGMIUrsp9bvutukjd-69" target="S-bMGMIUrsp9bvutukjd-78">
          <mxGeometry width="50" height="50" relative="1" as="geometry">
            <mxPoint x="310" y="584" as="sourcePoint" />
            <mxPoint x="184" y="584" as="targetPoint" />
          </mxGeometry>
        </mxCell>
        <mxCell id="S-bMGMIUrsp9bvutukjd-85" value="&lt;span style=&quot;font-size: 16px;&quot;&gt;&lt;b&gt;LLM回答&lt;/b&gt;&lt;/span&gt;" style="text;html=1;align=center;verticalAlign=middle;whiteSpace=wrap;rounded=0;" vertex="1" parent="1">
          <mxGeometry x="214" y="450" width="110" height="30" as="geometry" />
        </mxCell>
      </root>
    </mxGraphModel>
  </diagram>
</mxfile>
